<?xml version="1.0" standalone="no"?>
<!DOCTYPE svg PUBLIC "-//W3C//DTD SVG 20010904//EN"
 "http://www.w3.org/TR/2001/REC-SVG-20010904/DTD/svg10.dtd">
<svg version="1.0" xmlns="http://www.w3.org/2000/svg"
 width="640.000000pt" height="640.000000pt" viewBox="0 0 640.000000 640.000000"
 preserveAspectRatio="xMidYMid meet">

<g transform="translate(0.000000,640.000000) scale(0.100000,-0.100000)"
fill="#000000" stroke="none">
<path d="M1820 4616 c0 -8 42 -70 92 -138 51 -67 102 -135 113 -150 131 -180
173 -236 250 -336 l90 -117 832 -3 832 -2 21 22 c12 13 69 88 127 168 59 80
145 197 191 260 47 63 99 134 116 157 17 24 46 63 64 87 19 25 31 50 27 56 -4
7 -438 10 -1381 10 -1178 0 -1374 -2 -1374 -14z"/>
<path d="M3187 3793 c-3 -5 -8 -30 -11 -58 -4 -27 -11 -66 -16 -85 -9 -32 -23
-112 -50 -270 -5 -30 -23 -127 -39 -215 -16 -88 -37 -203 -46 -255 -9 -52 -27
-149 -40 -215 -13 -66 -31 -165 -40 -220 -20 -118 -21 -127 -40 -225 -8 -41
-24 -129 -35 -195 -11 -66 -24 -137 -28 -157 -5 -20 -6 -42 -2 -48 4 -7 117
-9 361 -8 l354 3 -3 50 c-2 28 -12 102 -24 165 -11 63 -25 145 -32 182 -6 36
-14 70 -18 74 -5 4 -8 20 -8 35 0 30 -30 212 -55 329 -9 41 -23 116 -30 165
-8 50 -35 200 -60 335 -25 135 -50 274 -56 310 -6 36 -17 94 -24 130 -8 36
-17 83 -20 105 -4 22 -9 48 -12 58 -4 18 -18 23 -26 10z"/>
</g>
</svg>
